# xmcd
#
# Track frame offsets: 
#        150
#        33889
#        56859
#        69923
#        84870
#        115679
#        129773
#        170406
#        193099
#        217191
#        240118
#
# Disc length: 3570 seconds
#
# Revision: 0
# Processed by: cddbd v1.5.1PL0 Copyright (c) Steve Scherf et al.
# Submitted via: ExactAudioCopy v0.95a5
#
DISCID=880df00b
DTITLE=Connie Lush and Blues Shouter - Live At The Royal Albert Hall
DYEAR=1999
DGENRE=Blues
TTITLE0=I'll Sing The Blues For You
TTITLE1=Keep Me Hanging On
TTITLE2=Now Baby Or Never
TTITLE3=One Monkey
TTITLE4=Can We Love Again
TTITLE5=Built For Comfort
TTITLE6=Doctor Doctor
TTITLE7=House Straight
TTITLE8=Dog
TTITLE9=You Don't Know Me
TTITLE10=Out Of The Rain
EXTD=
EXTT0=
EXTT1=
EXTT2=
EXTT3=
EXTT4=
EXTT5=
EXTT6=
EXTT7=
EXTT8=
EXTT9=
EXTT10=
PLAYORDER=
